<?xml version="1.0" encoding="UTF-8" standalone="no"?>
<!-- Created with Inkscape (http://www.inkscape.org/) -->

<svg
   width="50"
   height="50"
   viewBox="0 0 264.58333 264.58334"
   version="1.1"
   id="svg5"
   sodipodi:docname="bongblenderofficial-logo.svg"
   inkscape:version="1.1 (c68e22c387, 2021-05-23)"
   xmlns:inkscape="http://www.inkscape.org/namespaces/inkscape"
   xmlns:sodipodi="http://sodipodi.sourceforge.net/DTD/sodipodi-0.dtd"
   xmlns="http://www.w3.org/2000/svg"
   xmlns:svg="http://www.w3.org/2000/svg">
  <sodipodi:namedview
     id="namedview14"
     pagecolor="#505050"
     bordercolor="#eeeeee"
     borderopacity="1"
     inkscape:pageshadow="0"
     inkscape:pageopacity="0"
     inkscape:pagecheckerboard="0"
     showgrid="false"
     inkscape:zoom="7.9315462"
     inkscape:cx="18.848784"
     inkscape:cy="18.785745"
     inkscape:window-width="1366"
     inkscape:window-height="715"
     inkscape:window-x="-8"
     inkscape:window-y="-8"
     inkscape:window-maximized="1"
     inkscape:current-layer="layer1" />
  <defs
     id="defs2" />
  <g
     id="layer1">
    <path
       style="fill:#ffffff;stroke-width:0.554008;fill-opacity:1"
       d="m 25.621404,246.20233 c -6.370646,-1.34174 -12.14761,-4.20968 -16.3885148,-8.13602 -4.3479443,-4.02542 -5.1602088,-5.62794 -5.1345586,-10.13008 0.025336,-4.46386 1.2725227,-7.10342 5.0059308,-10.59559 5.2769436,-4.93597 12.4521016,-6.41876 34.5826416,-7.14675 8.418513,-0.27691 16.520886,-0.77472 18.005287,-1.1062 6.107827,-1.36396 10.584483,-5.51979 12.329113,-11.4455 3.902804,-13.25611 7.252046,-29.50706 12.307516,-59.71764 C 94.51897,88.981626 99.697435,64.713258 104.57208,52.429223 110.04151,38.64637 120.75995,26.097049 131.132,21.33246 c 9.63129,-4.424308 19.57916,-2.228089 23.42053,5.170657 3.20665,6.176205 -0.71019,18.315984 -10.38426,32.184946 -8.14318,11.674283 -12.46514,18.42434 -12.46514,19.468145 0,1.290004 6.01357,9.367818 12.63366,16.970298 10.49067,12.047434 17.64528,18.657954 43.87525,40.538744 32.1864,26.84959 52.59981,46.30123 61.07875,58.20102 12.29418,17.25427 14.53899,38.74811 5.03905,48.24805 -5.35504,5.35505 -12.79665,5.5387 -19.89473,0.49098 -6.31962,-4.49412 -9.6127,-10.09656 -16.27414,-27.68671 -5.60369,-14.79707 -10.14015,-23.7879 -15.09476,-29.91647 -5.38147,-6.65659 -16.78507,-18.24692 -17.5113,-17.79808 -0.31887,0.19704 -1.22528,2.2966 -2.01424,4.66561 -2.94564,8.84504 -12.75946,23.17932 -22.45597,32.79978 -11.27938,11.19093 -23.85985,18.12069 -38.20328,21.04369 -4.35266,0.88702 -7.63425,1.11666 -15.95665,1.11666 -12.274241,0 -12.90335,0.13924 -24.134837,5.33732 -11.775144,5.44984 -20.982851,9.22397 -30.095757,12.33591 -8.264298,2.82215 -8.280127,2.82506 -15.18528,2.78611 -4.517454,-0.0255 -8.636098,-0.402 -11.887492,-1.08679 z m 24.365432,-10.75236 c 11.905719,-2.8991 34.66664,-11.64113 33.830695,-12.99373 -0.154948,-0.2508 -1.664036,-1.40797 -3.353387,-2.57148 l -3.071571,-2.11546 -8.162784,0.64117 c -4.489521,0.35263 -13.522817,0.78364 -20.073977,0.95777 -23.74162,0.63105 -28.808462,2.17456 -28.808462,8.77589 0,1.57184 0.422673,2.28517 2.312682,3.90293 2.765551,2.36721 6.095927,4.05045 9.394497,4.74817 3.651003,0.77227 11.723123,0.16668 17.932307,-1.34526 z m 197.339174,-5.09584 c 3.12023,-3.49244 3.66355,-10.26258 1.49794,-18.66576 -2.20746,-8.56567 -5.14758,-12.41824 -24.32433,-31.87338 -16.43927,-16.67787 -35.24114,-33.8705 -37.04084,-33.8705 -0.77155,0 0.0758,7.57239 1.06043,9.47647 1.51638,2.93237 9.41548,11.22075 17.23889,18.08842 11.70453,10.27474 14.4013,14.00991 17.43344,24.14629 1.62591,5.43543 7.23188,19.45041 9.85346,24.63375 3.64071,7.19836 7.75514,11.02107 11.12193,10.33332 0.76176,-0.15558 2.18334,-1.1765 3.15908,-2.26861 z M 115.63687,216.00302 c 14.71093,-2.37628 24.75471,-7.63804 35.76151,-18.73474 7.89105,-7.95555 14.49548,-18.0213 17.76539,-27.07613 2.12343,-5.88008 1.98662,-22.72705 -0.22499,-27.70073 -2.42224,-5.44743 -9.42021,-9.79454 -17.64719,-10.96234 -6.10497,-0.86662 -19.10266,-0.41409 -23.70206,0.8252 -9.54083,2.57073 -16.08829,9.96985 -16.81317,19.00016 -0.24792,3.08874 -0.14008,3.73542 0.72863,4.37066 1.54104,1.12685 4.3103,0.9117 11.79694,-0.91647 10.33755,-2.52434 12.95489,-2.18337 16.91343,2.20336 6.79146,7.52603 6.51902,16.26957 -0.76477,24.5444 -6.88763,7.82479 -22.78424,15.42375 -34.06288,16.28287 -3.45186,0.26293 -4.09115,0.14993 -5.817081,-1.02764 -1.909335,-1.30277 -1.94177,-1.39059 -2.117719,-5.73525 -0.747143,-18.44844 10.2319,-87.25959 17.05091,-106.866785 1.33203,-3.830084 5.12086,-9.542052 15.36414,-23.162754 13.01573,-17.307299 15.45045,-21.913359 14.05137,-26.583009 -1.31228,-4.380046 -6.60304,-4.659832 -13.58406,-0.718374 -6.7516,3.811931 -12.51956,10.264489 -15.46967,17.305827 -5.19649,12.403016 -11.21831,40.113484 -18.334003,84.367035 -4.121364,25.63141 -6.729138,39.55007 -9.49475,50.67695 -1.093116,4.39792 -2.072303,9.96985 -2.255895,12.83679 -0.287157,4.48482 -0.184682,5.35437 0.893945,7.58239 2.123268,4.3861 7.21534,8.11318 13.064709,9.56258 3.868044,0.95845 10.690614,0.92857 16.897264,-0.0739 z m 3.8751,-29.89183 c 3.26438,-1.15174 8.64574,-5.10953 12.26993,-9.02413 6.4036,-6.91664 7.11115,-12.64105 1.83496,-14.84558 -7.29987,-3.05009 -16.42777,2.66165 -23.94371,14.98269 -2.58246,4.23349 -2.85958,7.87377 -0.68439,8.98994 1.88436,0.96693 7.65077,0.91052 10.52321,-0.10281 z m 4.75891,-61.79297 c 8.10039,-3.29721 11.20653,-3.95457 20.55161,-4.34945 4.6257,-0.19557 8.58571,-0.53076 8.80004,-0.74509 0.87097,-0.87098 -19.41741,-21.358909 -24.1054,-24.342495 -2.90484,-1.848738 -6.03811,-2.084992 -7.41876,-0.559383 -3.22079,3.558924 -7.8295,27.533038 -5.96324,31.020158 0.89091,1.66469 1.81735,1.5481 8.13575,-1.02374 z"
       id="path13745" />
  </g>
</svg>
